<svg width="31" height="31" viewBox="0 0 31 31" fill="none" xmlns="http://www.w3.org/2000/svg">
<path d="M19.2857 0C18.4219 0 17.6384 0.533203 17.3036 1.35352C16.9688 2.17383 17.1562 3.11035 17.7656 3.73926L20.5379 6.5625L11.3437 15.9551C10.5067 16.8096 10.5067 18.1973 11.3437 19.0518C12.1808 19.9062 13.5402 19.9062 14.3772 19.0518L23.5714 9.65918L26.3437 12.4893C26.9598 13.1182 27.8772 13.3027 28.6808 12.9609C29.4844 12.6191 30.0067 11.8262 30.0067 10.9375V2.1875C30.0067 0.977539 29.0491 0 27.8638 0H19.2857ZM5.35714 2.1875C2.39732 2.1875 0 4.63477 0 7.65625V25.1562C0 28.1777 2.39732 30.625 5.35714 30.625H22.5C25.4598 30.625 27.8571 28.1777 27.8571 25.1562V19.6875C27.8571 18.4775 26.8996 17.5 25.7143 17.5C24.529 17.5 23.5714 18.4775 23.5714 19.6875V25.1562C23.5714 25.7578 23.0893 26.25 22.5 26.25H5.35714C4.76786 26.25 4.28571 25.7578 4.28571 25.1562V7.65625C4.28571 7.05469 4.76786 6.5625 5.35714 6.5625H10.7143C11.8996 6.5625 12.8571 5.58496 12.8571 4.375C12.8571 3.16504 11.8996 2.1875 10.7143 2.1875H5.35714Z" fill="#F2F2F2"/>
</svg>
